PathFileType	4	(X/Y/Z)	C:\Users\Basilio\Documents\Thesis Gigler\squatting_fais\c3dfiles\054\SLS_back_pre5\markers_experimental.trc
DataRate	CameraRate	NumFrames	NumMarkers	Units	OrigDataRate	OrigDataStartFrame	OrigNumFrames
200.000000	200.000000	4	61	mm	200.000000	370	1480
Frame#	Time	FHD			LBHD			RBHD			C7			T10			CLAV			LSHO			LUUPA			LMUPA			LDUPA			LLEP			LMEP			LRAD			LUL			LRFIN			RSHO			RUPA1			RMUPA			RDUPA			RLEP			RMEP			RRAD			RUL			RUFIN			LASI			RASI			USACR			LSACR			RSACR			LTHI1			LTHI2			LTHI3			LTHI4			LLFC			LMFC			LTIB1			LTIB2			LTIB3			LTIB4			LLMAL			LMMAL			LHEE			LMT1			LMT2			LMT5			RTHI			RTHI2			RTHI3			RTHI4			RLFC			RMFC			RTIB1			RTIB2			RTIB3			RTIB4			RLMAL			RMMAL			RHEE			RMT1			RMT2			RMT5			
		X1	Y1	Z1	X2	Y2	Z2	X3	Y3	Z3	X4	Y4	Z4	X5	Y5	Z5	X6	Y6	Z6	X7	Y7	Z7	X8	Y8	Z8	X9	Y9	Z9	X10	Y10	Z10	X11	Y11	Z11	X12	Y12	Z12	X13	Y13	Z13	X14	Y14	Z14	X15	Y15	Z15	X16	Y16	Z16	X17	Y17	Z17	X18	Y18	Z18	X19	Y19	Z19	X20	Y20	Z20	X21	Y21	Z21	X22	Y22	Z22	X23	Y23	Z23	X24	Y24	Z24	X25	Y25	Z25	X26	Y26	Z26	X27	Y27	Z27	X28	Y28	Z28	X29	Y29	Z29	X30	Y30	Z30	X31	Y31	Z31	X32	Y32	Z32	X33	Y33	Z33	X34	Y34	Z34	X35	Y35	Z35	X36	Y36	Z36	X37	Y37	Z37	X38	Y38	Z38	X39	Y39	Z39	X40	Y40	Z40	X41	Y41	Z41	X42	Y42	Z42	X43	Y43	Z43	X44	Y44	Z44	X45	Y45	Z45	X46	Y46	Z46	X47	Y47	Z47	X48	Y48	Z48	X49	Y49	Z49	X50	Y50	Z50	X51	Y51	Z51	X52	Y52	Z52	X53	Y53	Z53	X54	Y54	Z54	X55	Y55	Z55	X56	Y56	Z56	X57	Y57	Z57	X58	Y58	Z58	X59	Y59	Z59	X60	Y60	Z60	X61	Y61	Z61	

371	1.85	-159.3129272460938	1780.319946289063	-1096.345825195313	-319.9657897949219	1730.220336914063	-1170.886596679688	-341.5959777832032	1734.009765625	-1032.15283203125	-370.9143676757813	1562.481079101563	-1086.279174804688	-411.1535034179689	1236.4658203125	-1070.832641601563	-227.7156677246094	1501.732666015625	-1084.90625	-296.6785888671876	1550.782104492188	-1238.6533203125	-152.5801239013672	1414.539428710938	-1357.2109375	-117.5867233276367	1447.230834960938	-1345.813842773438	-84.32693481445314	1401.513061523438	-1366.349731445313	-25.92374801635743	1401.74462890625	-1364.468139648438	-27.66021919250489	1341.682983398438	-1312.834838867188	219.5627593994141	1442.849609375	-1262.652587890625	243.8571777343751	1400.674926757813	-1323.51953125	313.5522460937501	1463.054931640625	-1274.5546875	-299.6161193847657	1562.380004882813	-940.4475097656252	-164.2809143066407	1439.146606445313	-793.513122558594	-125.6226272583008	1466.338623046875	-803.3489379882815	-99.22669982910159	1418.48193359375	-775.964538574219	-53.29444885253908	1408.648071289063	-773.6773071289065	-56.39120864868165	1350.073852539063	-825.345397949219	192.7426147460938	1475.30615234375	-909.4858398437502	206.7891082763672	1449.6455078125	-835.6062011718752	266.2896118164063	1514.155517578125	-905.784362792969	-229.2016754150391	1045.921264648438	-1168.097900390625	-253.5350494384766	1058.346557617188	-917.7036132812502	-418.3941345214845	1154.69970703125	-1065.224609375	-425.7351684570314	1122.83203125	-1092.875366210938	-430.0577392578126	1123.859130859375	-1035.933715820313	-307.6410217285157	804.6540527343752	-1240.757202148438	-274.5211181640626	726.7476196289064	-1226.780029296875	-227.7648162841797	733.0044555664064	-1216.330200195313	-303.4377441406251	676.8058471679689	-1205.978393554688	-302.9539184570313	523.0724487304689	-1168.220581054688	-283.8109741210938	535.2608642578126	-1029.408081054688	-272.3698120117188	365.2396545410157	-1094.925537109375	-320.0973815917969	314.0801696777344	-1148.301879882813	-282.3305053710938	312.9365234375001	-1121.269287109375	-294.7879333496094	241.3439636230469	-1077.840576171875	-359.2738037109376	108.171615600586	-1103.410034179688	-329.2670898437501	132.6311492919922	-1013.492065429688	-427.9471435546876	100.6914901733399	-1043.259765625	-217.2676544189454	56.00615692138673	-1020.642028808594	-208.6282653808594	54.56966781616212	-1069.898803710938	-260.5490722656251	37.56674957275391	-1120.922485351563	-332.0705871582032	767.0619506835939	-817.1813964843752	-288.3005981445313	717.9511718750001	-802.2698364257815	-254.8142242431641	721.1782836914064	-802.217224121094	-305.8632202148438	636.3419189453126	-816.0567626953127	-321.4557495117188	585.4442749023439	-825.5261230468752	-236.3533325195313	552.4313354492189	-931.949890136719	-378.5171813964844	497.5321655273439	-865.6404418945315	-473.7188720703126	546.8251342773439	-873.003845214844	-464.0974731445314	502.187469482422	-882.5882568359377	-492.3758544921876	478.4703979492189	-927.646423339844	-667.0914306640626	496.1933898925782	-989.583679199219	-604.2134399414064	463.7405395507814	-1056.18310546875	-663.5169677734376	558.6055297851564	-1054.306030273438	-672.4946289062501	338.3782653808594	-1087.051391601563	-696.8651123046876	333.3538513183594	-1044.842651367188	-740.2302856445314	379.7389831542969	-1015.506103515625	
372	1.855	-158.8928985595703	1780.20068359375	-1096.305297851563	-319.7027282714844	1730.226684570313	-1170.905029296875	-341.3545532226563	1733.998779296875	-1032.135009765625	-370.7631225585938	1562.453735351563	-1086.250610351563	-411.1932373046876	1236.501953125	-1070.830444335938	-227.4780731201172	1501.68115234375	-1084.858032226563	-296.3596191406251	1550.648803710938	-1238.5810546875	-152.6295013427735	1414.362670898438	-1357.045288085938	-117.4172439575196	1447.045532226563	-1345.81103515625	-84.19553375244142	1401.3583984375	-1366.359130859375	-25.74348640441895	1401.53955078125	-1364.533569335938	-27.56422996520997	1341.41259765625	-1312.9541015625	219.9977416992188	1442.3515625	-1262.833862304688	243.8043975830079	1400.199829101563	-1323.80712890625	313.7405395507813	1462.64453125	-1274.828125	-299.4585266113282	1562.395141601563	-940.3837890625002	-164.2245788574219	1439.153686523438	-793.424987792969	-125.5102310180664	1466.307861328125	-803.236755371094	-99.18865966796878	1418.43505859375	-775.942077636719	-53.24782180786134	1408.633666992188	-773.5307617187502	-56.39033889770509	1349.99609375	-825.229675292969	192.7018737792969	1475.099975585938	-909.1217041015627	206.9243927001954	1449.519409179688	-835.424987792969	266.4423522949219	1513.931762695313	-905.5674438476565	-229.3329315185547	1045.918212890625	-1167.987426757813	-253.6947631835938	1058.229736328125	-917.6461181640627	-418.4461364746095	1154.738403320313	-1065.23779296875	-425.8603515625001	1122.894775390625	-1092.8798828125	-430.1636657714845	1123.914794921875	-1035.965576171875	-308.0531311035157	804.7844238281252	-1240.796752929688	-274.6374206542969	726.8190307617189	-1226.808715820313	-227.8486328125001	733.0177612304689	-1216.31689453125	-303.5393066406251	676.7873535156251	-1205.993408203125	-302.9029846191407	522.7706298828126	-1167.502563476563	-283.8887023925782	535.2385864257814	-1029.367797851563	-272.4315795898438	365.2359008789063	-1094.917236328125	-320.1807861328126	314.0969543457032	-1148.402465820313	-282.4105224609376	312.9684448242188	-1121.296997070313	-294.8475952148438	241.3546295166016	-1077.86669921875	-359.2486877441407	108.155029296875	-1103.433715820313	-329.2104492187501	132.6250610351563	-1013.509765625	-427.9385681152345	100.6673583984375	-1043.256713867188	-217.2545471191407	56.002254486084	-1020.667358398438	-208.6303253173829	54.57583618164064	-1069.896850585938	-260.6579895019532	37.59596252441407	-1120.8955078125	-332.4513244628907	767.0070190429689	-817.2542114257815	-288.6313476562501	717.7430419921876	-802.296325683594	-255.2942810058594	721.1055908203126	-802.2439575195315	-306.5067443847657	636.3764038085939	-815.9921875000002	-321.9020690917969	585.4004516601564	-825.6389770507815	-236.8734130859376	552.2897949218751	-931.903503417969	-378.8452758789063	497.4727783203126	-865.6577148437502	-474.0407714843751	546.7391967773439	-873.147888183594	-464.6772460937501	502.1602783203126	-882.7034912109377	-492.8125305175782	478.3577880859376	-927.8316040039065	-667.3602294921876	495.9496154785157	-990.0191650390627	-604.4869384765626	463.6431274414064	-1056.6103515625	-663.8124389648439	558.4630126953126	-1054.70654296875	-672.6588745117189	338.2201232910157	-1087.368896484375	-697.0684814453126	333.1294555664063	-1045.357788085938	-740.3441162109376	379.5685119628907	-1015.913635253906	
373	1.86	-158.551498413086	1780.099243164063	-1096.323120117188	-319.2227478027344	1730.148315429688	-1170.924438476563	-340.9860534667969	1734.025390625	-1032.132934570313	-370.5198059082032	1562.511474609375	-1086.26123046875	-411.2361145019532	1236.588500976563	-1070.769409179688	-227.3024139404297	1501.60986328125	-1084.834716796875	-296.0973510742188	1550.649780273438	-1238.618530273438	-152.5640869140625	1414.247436523438	-1357.07373046875	-117.4310836791992	1447.060791015625	-1345.83642578125	-84.16745758056642	1401.190307617188	-1366.339111328125	-25.67786598205567	1401.324096679688	-1364.5810546875	-27.51744461059571	1341.186279296875	-1313.011474609375	220.3282470703126	1442.029663085938	-1263.103637695313	244.9851226806641	1399.610717773438	-1324.322875976563	313.8617858886719	1462.230590820313	-1275.121337890625	-299.0692749023438	1562.444458007813	-940.417175292969	-164.1660308837891	1439.141235351563	-793.3576660156252	-125.4131698608399	1466.2578125	-803.217956542969	-99.14685058593753	1418.395751953125	-775.8418579101565	-53.15512084960939	1408.592651367188	-773.3769531250002	-56.37910842895509	1349.936889648438	-825.1163330078127	195.7272186279297	1474.7763671875	-911.2905273437502	207.0332641601563	1449.4140625	-835.2678833007815	266.6139221191407	1513.71728515625	-905.3865966796877	-229.5889282226563	1045.862426757813	-1167.860961914063	-253.8578796386719	1058.159057617188	-917.6323242187502	-418.6931762695314	1154.775634765625	-1065.191650390625	-426.0012207031251	1122.94091796875	-1092.872314453125	-430.3161926269532	1123.989868164063	-1035.937133789063	-307.7926330566407	804.6346435546877	-1240.767211914063	-274.7352905273438	726.7670288085939	-1226.857299804688	-227.9609375000001	733.0178222656251	-1216.295532226563	-303.5983581542969	676.7417602539064	-1206.017700195313	-302.9114990234376	522.6589965820314	-1167.287231445313	-283.9479675292969	535.3233642578126	-1029.407348632813	-272.4528198242188	365.2403869628907	-1094.986572265625	-320.2577209472657	313.9160461425782	-1148.295532226563	-282.4501647949219	312.9809265136719	-1121.355346679688	-294.9739074707032	241.3970947265626	-1077.9228515625	-359.2342529296876	108.2011337280274	-1103.447265625	-329.2315673828126	132.6415557861328	-1013.528930664063	-427.9633789062501	100.6577453613282	-1043.256103515625	-217.2619628906251	56.02048873901369	-1020.671752929688	-208.6280364990235	54.5493507385254	-1069.890869140625	-260.2058105468751	37.55374145507813	-1121.006103515625	-332.9147338867188	766.8888549804689	-817.2493896484377	-289.1935424804688	717.6843872070314	-802.2718505859377	-255.8636932373047	721.0252685546876	-802.2121582031252	-306.8069458007813	636.2841186523439	-816.0871582031252	-322.3002014160157	585.3700561523439	-825.7952880859377	-238.3369598388672	552.2113037109376	-931.4807128906252	-379.1995849609376	497.3832397460939	-865.8059082031252	-474.4330444335939	546.6749267578126	-873.3458251953127	-464.9631958007814	501.955047607422	-883.018249511719	-493.1493530273439	478.2857666015626	-927.9791259765627	-667.6471557617189	495.7796325683595	-990.453552246094	-604.7136230468751	463.4704895019532	-1056.901245117188	-664.1812133789064	558.2709960937501	-1055.082641601563	-673.2614135742189	338.0167541503907	-1087.916625976563	-697.2686157226564	332.7507324218751	-1046.03173828125	-740.5490722656251	379.3283081054688	-1016.384765625	
374	1.865	-158.2758178710938	1779.851196289063	-1096.286376953125	-318.9201354980469	1730.127563476563	-1170.899536132813	-340.7916259765626	1734.048217773438	-1032.084106445313	-370.3059692382813	1562.488403320313	-1086.22412109375	-411.1640625000001	1236.643188476563	-1070.740844726563	-227.0619354248047	1501.60791015625	-1084.790771484375	-295.7444763183594	1550.473999023438	-1238.497436523438	-152.5207977294922	1414.081787109375	-1357.08447265625	-117.3238143920899	1446.87451171875	-1345.827758789063	-84.11302947998048	1400.997680664063	-1366.34375	-25.576322555542	1401.165161132813	-1364.63720703125	-27.42001533508301	1341.25927734375	-1313.078857421875	220.4042510986329	1441.729736328125	-1263.339233398438	245.3997802734376	1399.043823242188	-1324.706420898438	314.3135681152344	1461.497436523438	-1275.443359375	-298.8450622558594	1562.438842773438	-940.4128417968752	-164.1273498535157	1439.099609375	-793.3322753906252	-125.2883605957032	1466.236328125	-803.1323242187502	-99.0691833496094	1418.418334960938	-775.6802978515627	-53.11860275268556	1408.588623046875	-773.270202636719	-56.15146636962892	1349.89794921875	-825.062194824219	195.7524566650391	1474.578491210938	-911.020690917969	207.1156768798829	1449.246948242188	-835.084167480469	266.7014770507813	1513.545532226563	-905.2105102539065	-229.8071899414063	1045.790771484375	-1167.746826171875	-254.1267852783204	1058.039794921875	-917.6030273437502	-418.7266540527345	1154.850341796875	-1065.187744140625	-426.093475341797	1122.982421875	-1092.8359375	-430.4400329589845	1124.064575195313	-1035.92626953125	-307.9100036621094	804.6328735351565	-1240.7265625	-274.8101196289063	726.7351684570314	-1226.839599609375	-228.0631256103516	733.0636596679689	-1216.334106445313	-303.7385559082032	676.7448730468751	-1206.038330078125	-302.8975524902344	522.6477661132814	-1167.244873046875	-284.0122070312501	535.3470458984376	-1029.449584960938	-272.5260620117188	365.2598876953126	-1094.9833984375	-320.1041564941407	313.3882141113282	-1147.64697265625	-282.4693908691407	312.9856872558594	-1121.380615234375	-294.9664001464844	241.3442382812501	-1077.95703125	-359.2585754394532	108.0591049194336	-1103.4208984375	-329.2365722656251	132.6349334716797	-1013.574279785156	-427.9645996093751	100.664306640625	-1043.255615234375	-217.2520141601563	56.00517654418947	-1020.66064453125	-208.6381988525391	54.53344345092775	-1069.880981445313	-260.6480712890626	37.56255340576173	-1120.903198242188	-333.2973022460938	766.8770751953126	-817.2429199218752	-289.6115417480469	717.6527099609376	-802.3107910156252	-256.2942810058594	720.8981933593751	-802.2218017578127	-307.1849670410157	636.1460571289064	-816.1361083984377	-323.0223388671876	585.2603759765626	-825.797546386719	-238.6057586669922	552.1018676757814	-931.4666137695315	-379.6404724121094	497.1820373535157	-865.9833984375002	-474.7996826171876	546.5906372070314	-873.608093261719	-465.2599182128907	501.8128967285157	-883.3164672851565	-493.5801086425782	478.2551879882814	-928.0747680664065	-667.8604125976564	495.630828857422	-990.761413574219	-604.9935913085939	463.298309326172	-1057.234619140625	-664.4324340820314	558.1265869140626	-1055.4892578125	-673.2382812500001	337.7697753906251	-1087.9736328125	-697.4749755859376	332.7135009765626	-1046.009155273438	-740.8988647460939	379.0387878417969	-1016.946350097656	
